<svg width="31" height="31" viewBox="0 0 31 31" fill="none" xmlns="http://www.w3.org/2000/svg">
<path d="M5.09899 26.0471C2.68368 23.921 1.03956 21.3319 0.385519 18.2412C-0.858189 12.3609 0.91725 7.37817 5.56764 3.44846C8.1323 1.28008 11.2223 0.138635 14.665 0.00793515C15.4825 -0.0231839 15.5044 -0.00202427 15.4529 0.788399C15.2714 3.5804 14.4023 6.14959 12.7183 8.43621C9.93221 12.2203 6.16374 14.3961 1.36272 14.8604C1.26742 14.8849 1.17369 14.9148 1.08205 14.9501C1.68201 15.0471 2.1365 15.1256 2.59355 15.199C5.28697 15.6011 7.65207 16.6927 9.75839 18.347C10.2373 18.7204 10.7292 19.0839 11.2158 19.4524C11.275 19.883 11.6664 20.0934 11.9136 20.3859C13.659 22.415 14.8108 24.8588 15.2495 27.4636C15.2734 27.5641 15.3048 27.6627 15.3435 27.7586C15.3641 28.118 15.3851 28.4777 15.4066 28.8379L15.6152 28.8291V27.7611C16.0014 25.9886 16.4997 24.2534 17.455 22.6813C20.3381 17.9354 24.6224 15.3629 30.3079 14.9637C30.913 14.9214 31.0366 15.1417 30.9916 15.6683C30.5165 21.195 27.9119 25.4932 22.8315 28.1047C17.2078 30.995 11.6613 30.5419 6.39677 27.0653C5.93972 26.7579 5.5303 26.3857 5.09899 26.0471Z" fill="#0284FF"/>
<path d="M16.7776 13.4588C16.8342 12.758 16.8381 12.0485 16.9656 11.3589C17.0855 10.7572 17.2604 10.1669 17.4883 9.59508C18.6213 6.66491 20.5576 4.33969 23.394 2.8049C25.0677 1.90121 26.8624 1.32488 28.8155 1.25269C29.4593 1.22779 29.7451 1.37716 29.6846 2.01075C29.6691 2.21364 29.655 2.41654 29.6395 2.61943C29.6395 2.66549 29.6395 2.71155 29.6331 2.75885C29.4381 3.78913 29.1776 4.80679 28.8529 5.80602C28.8064 5.84367 28.7692 5.89098 28.7443 5.94443C28.7193 5.99788 28.7071 6.05609 28.7087 6.11472C28.6899 6.12374 28.6739 6.13754 28.6626 6.15465C28.6512 6.17175 28.6449 6.19151 28.6443 6.21182C28.3284 6.7927 28.0134 7.37359 27.6993 7.95448L27.7083 7.96817L27.5796 8.09265C27.5338 8.11476 27.4959 8.14953 27.4707 8.19254C27.4455 8.23554 27.4341 8.28484 27.4379 8.33413H27.4495L27.3208 8.48226C27.2332 8.59056 27.1457 8.70009 27.0633 8.80839L25.9136 10.0818L23.9566 11.6601H23.9373C23.4223 11.8655 22.9266 12.0871 22.5056 12.4443C20.9851 13.0543 19.4324 13.5497 17.7754 13.6455C17.4381 13.6654 17.0441 13.8472 16.7776 13.4588Z" fill="#0284FF"/>
</svg>
